
<svg version="1.1" xmlns="http://www.w3.org/2000/svg" xmlns:xlink="http://www.w3.org/1999/xlink" x="0px" y="0px" viewBox="0 0 500 500" style="enable-background:new 0 0 500 500;" xml:space="preserve">
  <style type="text/css">
    .st0 {
      fill: #FF5400;
    }

    .st1 {
      stroke: #000000;
      stroke-width: 4.687500e-02;
      stroke-miterlimit: 2;
    }

    .st2 {
      fill: #464B4B;
      stroke: #464B4B;
      stroke-width: 4.687500e-02;
      stroke-miterlimit: 2;
    }

    .st3 {
      fill: #FFD400;
      stroke: #FFD400;
      stroke-width: 4.687500e-02;
      stroke-miterlimit: 2;
    }
  </style>
  <rect x="0" y="0" class="st0" width="500" height="500" />
  <path class="st1" d="M349.6,332.5c7.1-16,10.5-33.3,12.2-50.6c1.2-13.3,1.6-26.7,0.1-40c-1.3-10.7-3-21.4-6.8-31.6
	c-4.9-13.4-13.2-25.6-24.3-34.6c-13.3-10.7-28.2-19.4-44.3-25.3c-8.2-3-16.6-5.3-25.2-7.3c-9.3-2.2-18.8-3.4-28.3-3
	c-14.7,0.4-29.2,5.1-41.8,12.4c-12.3,7-22.7,16.9-31.2,28.2c-7.8,10.5-14.3,22-19,34.2c-6.9,17.4-10.5,35.9-11.6,54.5
	c-1.2,20.1,0.2,40.9,8.3,59.6c7,17,20.6,30.7,36.6,39.5c-8.5,2.4-17.1,5-24.5,10c-6.8,4.5-12.1,10.9-16,18
	c-7.9,14.6-10.8,31.3-12.1,47.7c-0.9,11-1.1,22-1.5,33c-0.2,7.5-0.7,15-0.8,22.5H131h49.6h6.7h123.3h6.7h32.4h9.6
	c0.2-13.8-0.1-27.7-0.9-41.5c-0.8-13.6-1.7-27.3-4.6-40.7c-2.9-13.7-8.4-27.2-17.8-37.8c-4.8-5.5-10.6-10-16.9-13.7
	C332.4,358.6,343.3,346.7,349.6,332.5z" />
  <path class="st2" d="M225.3,150.8c16.8-1.8,33.6,1,49.7,5.6c8.1,2.2,15.8,5.4,23.3,9.2c12.5,6.2,24.4,13.8,33.9,24.1
	c6.7,7.4,11.5,16.4,14.8,25.8c3,8.5,4.3,17.5,5.3,26.4c2.4,22,0.7,44.3-3.9,65.9c-2,7.9-4.1,15.8-8.1,23
	c-4.2,7.7-9.8,14.8-16.6,20.4c-11.5,9.3-25.7,14.5-39.9,18.2c-22.4,5.4-45.9,6.2-68.6,2c-11.3-2.2-22.5-5.3-33.1-10
	c-12.3-5.3-23.2-14.2-30.4-25.6c-4.5-7.3-7.6-15.4-9.9-23.6c-2.9-10.6-3.8-21.6-3.7-32.6c0.1-19.2,3.7-38.3,9.8-56.5
	c2.9-8.3,6.5-16.4,10.8-24.1c6.1-10.9,13.6-21.2,23.2-29.2C194.3,159.4,209.4,152.4,225.3,150.8z" />
  <path class="st1" d="M244,193.5c18.1-2.9,36.9,0.6,53.1,8.9c6.5,3.4,12.5,7.6,17.6,12.9c5.3,5.6,9.8,12,13.2,18.9
	c3.9,7.4,6.2,15.5,7.9,23.6c2.4,12.3,2.5,24.9,0.9,37.3c-1.2,8.8-3.5,17.4-7.3,25.4c-2.7,6.1-6.1,12-10.4,17.1
	c-4.3,5.2-9.1,10.1-14.9,13.6c-1.4,1-3.6,0.4-4.2-1.2c-0.6-1.3,0.3-2.8,1.4-3.5c3.2-2.1,6.1-4.5,8.7-7.3c1-1.1,2.3-2.3,2.6-3.8
	c-5.9,1.5-11.8,3.1-17.8,4c-14.2,2.2-28.7,3.2-43.1,2.5c-8-0.2-16.1-0.9-24-2.3c-10.5-1.8-21-3.8-31.1-7.1c-1.5-0.4-2.8-1.3-4.4-1.3
	c-0.9,0.4,0.1,1.4,0.2,2c4,6.7,10.1,11.7,16.4,16.2c1,0.7,2.1,1.8,1.8,3.1c-0.1,1.6-2,2.7-3.5,2.2c-1.1-0.4-2.1-1.1-3-1.7
	c-6.6-4.4-12.4-10-17.2-16.3c-5.4-7-9.8-14.9-12.7-23.3c-5.6-16.9-6.3-35.2-2.9-52.7c3.2-16.2,11.2-31.5,23.2-42.8
	C208.4,205.1,225.6,196.3,244,193.5z" />
  <path class="st2" d="M250.1,198.6c10.2-1,20.6,0.3,30.4,3.3c9,2.8,17.8,6.9,25.1,12.9c5.9,4.9,10.7,11,14.3,17.8
	c1,1.9,2.1,4.1,1.4,6.3c-0.5,1.9-2.4,2.8-4.2,3.2c-4.2,0.8-8.5,1.1-12.7,1.5c-11.8,0.8-23.6,1.5-35.4,1c-11.9-0.1-23.7-1-35.5-2.2
	c-10.8-1.2-21.6-3.2-32.2-5.5c-1.7-0.4-3.6-0.9-4.9-2.2c-1.6-1.5-2.1-4-1.4-6.1c1.2-3.9,4.3-6.7,7.2-9.3
	C215.6,207.6,232.5,200.1,250.1,198.6z" />
  <path class="st3" d="M187.2,241.8c2.4-0.7,5,0,7.4,0.4c10.2,2.2,20.5,4.3,30.9,5.6c12.1,2,24.3,2.6,36.6,3.3
	c7.3,0.4,14.6,0.3,21.9,0c12.6,0,25.1-1.2,37.5-3.2c1.6-0.2,3.5-0.4,4.8,0.7c1.8,1.6,2.3,4.1,2.9,6.3c1.3,5.9,1.9,11.9,2.5,17.9
	c0.9,13.5-0.1,27.4-5.1,40.1c-1.2,3.2-2.8,6.4-4.8,9.2c-2.6,3.2-6.5,4.6-10.3,5.9c-7.7,2.4-15.6,3.9-23.5,5.2
	c-10.6,1.7-21.3,1.8-32,1.7c-13.6-0.1-27.2-1.9-40.4-4.9c-7.5-1.6-14.9-4-21.8-7.2c-3.5-1.6-7-3.6-9.8-6.4c-3.3-3.3-4.9-7.9-6-12.3
	c-2.1-8.5-2.6-17.4-2.2-26.2c0.4-10.3,2.3-20.6,6.2-30.1C183,245.5,184.4,242.7,187.2,241.8z" />
  <path class="st1" d="M218.3,258.8c3-2.7,7.1-4.6,11.2-3.7c4,0.8,7,4,8.9,7.5c2,3.9,3.1,8.2,3.5,12.5c-7,4.1-14,8.2-21,12.4
	c-0.8,0.4-1.5,1.1-1.4,2c0.1,1,1.1,1.6,1.8,2.1c5.6,3.4,11.1,6.9,16.6,10.4c-2.5,6.1-5.9,12.1-11.3,15.9c-3.3,2.4-7.9,3.4-11.7,1.6
	c-4.8-2.3-7.3-7.3-8.8-12.1c-2.7-10.1-1.8-20.8,1.3-30.7C209.9,270,213.1,263.5,218.3,258.8z" />
  <path class="st1" d="M306.4,263.4c3.1-1.6,7.1-0.7,9.5,1.8c3.5,3.5,5,8.5,5.9,13.3c-5.3,3.6-10.7,7.1-16,10.8
	c-1.3,0.8-1.5,2.9,0,3.6c4.9,2.4,9.9,4.7,14.8,7.1c-1.5,5.1-3.9,10.5-8.3,13.7c-2.6,2-6.4,2.3-9.2,0.5c-4.1-2.7-6.1-7.6-7.2-12.1
	c-2-9-1.3-18.7,1.9-27.4C299.4,270.2,301.9,265.6,306.4,263.4z" />
  <path class="st2" d="M348.6,457.8c-0.8-14-1.8-28-5.2-41.7c-2.2-8.6-5.5-17-10.5-24.5c-5.8-8.9-14.3-15.9-24-20.2
	c-9,3.8-18.5,6.3-28.1,7.8c-12.9,2-25.8,3.6-38.8,3.6c-16.3-0.3-32.6-2.3-48.3-6.6c-1.8-0.4-3.7-1.5-5.6-1
	c-7.9,1.8-15.8,4.1-23.1,7.8c-8.6,4.4-16,11.2-21.1,19.4c-4.3,6.7-7.1,14.3-8.9,22.1c-4.5,19.5-4.7,39.6-4.5,59.4
	c0,5.3,0.1,10.7,0.5,16h49.6h6.7h123.3h6.7h32.4C349.8,485.9,349.4,471.8,348.6,457.8z" />
  <path class="st1" d="M294.7,428.5c0.2-2.5,3.5-3.6,5.3-2c8.2,6.9,12.5,17.3,14.8,27.6c3.1,15.1,2.5,30.6,2.6,45.9h-6.7
	c0.1-6.7-0.2-13.4-0.4-20c-0.3-7.7-0.8-15.4-2.3-23c-1.7-8.4-5.1-16.7-10.6-23.3C296.2,432.1,294.7,430.5,294.7,428.5z" />
  <path class="st1" d="M195.2,428.2c0.8-0.8,2-1.6,3.2-1.2c1.7,0.3,2.8,2.4,2.1,4c-0.7,1.7-2,3.1-3.1,4.5c-2.7,3.3-4.8,7-6.4,10.9
	c-3.9,9.7-3.9,20.4-3.9,30.6c-0.1,7.7,0.2,15.3,0.2,23h-6.7c-0.3-5-0.2-10-0.4-15c0-10.4-0.3-21,1.6-31.3
	C183.6,444.1,188.1,435,195.2,428.2z" />
</svg>